# xmcd
#
# Track frame offsets:
#	150
#	12148
#	24507
#	36438
#	44066
#	54993
#	66294
#	82007
#	99059
#	111635
#	123900
#	133386
#
# Disc length: 2006 seconds
#
# Revision: 0
# Processed by: cddbd v1.5.1PL0 Copyright (c) Steve Scherf et al.
# Submitted via: dBpowerAMP V4.0
#
DISCID=a707d40c
DTITLE=Roy Drusky - Greatest Hits
DYEAR=2004
DGENRE=Country
TTITLE0=Three Hearts In A Tangle
TTITLE1=Yes, Mr. Peters
TTITLE2=Another
TTITLE3=Second Hand Rose
TTITLE4=Long Long Texas Road
TTITLE5=Such A Fool
TTITLE6=Alone Again Naturaly
TTITLE7=Farther Along
TTITLE8=If The Whole World Stopped Lovin'
TTITLE9=Anymore
TTITLE10=White Lightnin' Express
TTITLE11=The Last Farewell
EXTD=
EXTT0=
EXTT1=
EXTT2=
EXTT3=
EXTT4=
EXTT5=
EXTT6=
EXTT7=
EXTT8=
EXTT9=
EXTT10=
EXTT11=
PLAYORDER=
